<?xml version="1.0" encoding="utf-8"?><svg viewBox="0 0 30 30" xmlns="http://www.w3.org/2000/svg" xmlns:xlink="http://www.w3.org/1999/xlink"><style>:root>svg{display:none}:root>svg:target{display:block}</style><svg viewBox="0 0 14 9" id="Vector" xmlns="http://www.w3.org/2000/svg"><path d="M1 1l6 7 6-7"/></svg><svg viewBox="0 0 26 26" id="close" xmlns="http://www.w3.org/2000/svg"><path d="M21.734 19.64l-2.097 2.094a.983.983 0 01-1.395 0L13 16.496l-5.238 5.238a.988.988 0 01-1.399 0l-2.097-2.093a.988.988 0 010-1.399L9.504 13 4.266 7.762a.995.995 0 010-1.399l2.097-2.097a.988.988 0 011.399 0L13 9.508l5.242-5.242a.983.983 0 011.395 0l2.097 2.093a.996.996 0 01.004 1.403L16.496 13l5.238 5.242a.988.988 0 010 1.399z"/></svg><svg viewBox="0 0 30 30" id="menu" xmlns="http://www.w3.org/2000/svg"><path d="M3 7a1 1 0 100 2h24a1 1 0 100-2H3zm0 7a1 1 0 100 2h24a1 1 0 100-2H3zm0 7a1 1 0 100 2h24a1 1 0 100-2H3z"/></svg></svg>