<?xml version="1.0" encoding="utf-8"?><svg viewBox="0 0 40 40" xmlns="http://www.w3.org/2000/svg" xmlns:xlink="http://www.w3.org/1999/xlink"><style>:root>svg{display:none}:root>svg:target{display:block}</style><svg viewBox="0 0 14 9" id="Vector" xmlns="http://www.w3.org/2000/svg"><path d="M1 1l6 7 6-7"/></svg><svg viewBox="0 0 26 26" id="close" xmlns="http://www.w3.org/2000/svg"><path d="M21.734 19.64l-2.097 2.094a.983.983 0 01-1.395 0L13 16.496l-5.238 5.238a.988.988 0 01-1.399 0l-2.097-2.093a.988.988 0 010-1.399L9.504 13 4.266 7.762a.995.995 0 010-1.399l2.097-2.097a.988.988 0 011.399 0L13 9.508l5.242-5.242a.983.983 0 011.395 0l2.097 2.093a.996.996 0 01.004 1.403L16.496 13l5.238 5.242a.988.988 0 010 1.399z"/></svg><svg viewBox="0 0 30 30" id="menu" xmlns="http://www.w3.org/2000/svg"><path d="M3 7a1 1 0 100 2h24a1 1 0 100-2H3zm0 7a1 1 0 100 2h24a1 1 0 100-2H3zm0 7a1 1 0 100 2h24a1 1 0 100-2H3z"/></svg><svg viewBox="0 0 40 40" id="ok-circle" xmlns="http://www.w3.org/2000/svg"><path d="M11.667 21.667l5 5L28.333 15"/><path d="M20 36.667c9.205 0 16.667-7.462 16.667-16.667 0-9.205-7.462-16.667-16.667-16.667-9.205 0-16.667 7.462-16.667 16.667 0 9.205 7.462 16.667 16.667 16.667z"/></svg><svg viewBox="0 0 36 34" id="tg" xmlns="http://www.w3.org/2000/svg"><path d="M28.209 7.076L5.202 15.907c-.714.273-.685 1.319.042 1.55l5.608 1.787 2.23 7.006a.956.956 0 00.25.402c.115.11.256.188.41.227a.904.904 0 00.869-.24l3.14-3.125 5.782 4.353a1.12 1.12 0 001.082.151c.178-.07.336-.184.46-.333.124-.15.209-.328.248-.52L29.25 7.992a.822.822 0 00-.256-.774.772.772 0 00-.784-.141zm-3.487 4.095l-10.436 9.597-.346 3.72-1.702-5.758 12.153-8.005c.284-.186.583.216.331.446z"/><path d="M21.382 34H12.5c-.235 0-.442-.029-.649-.029-1.18-.028-2.419-.085-3.628-.314-2.213-.429-3.983-1.344-5.4-2.802C1.41 29.367.525 27.48.259 25.25c-.118-.973-.177-2.002-.206-3.203-.06-3.002-.089-6.92.03-10.895C.11 10.21.17 9.18.346 8.15c.295-1.573.855-2.86 1.652-3.975C3.562 2.03 5.864.715 8.814.286a27.471 27.471 0 013.688-.229C15.658 0 18.815 0 21.854 0c1.504 0 3.186 0 4.868.315 1.563.286 2.89.772 4.012 1.544 2.272 1.515 3.658 3.774 4.1 6.662.178 1.23.207 2.431.237 3.49.059 3.802.088 7.72-.06 11.637-.058 1.144-.176 2.117-.412 3.003-.708 2.602-2.213 4.575-4.514 5.862-1.416.772-3.039 1.23-5.015 1.344-.768.057-1.535.057-2.272.086-.354 0-.708.028-1.092.028H21.5l-.118.029zM13.8 32.57h7.582c.088 0 .177 0 .265-.028.354 0 .738-.029 1.092-.029.737-.029 1.475-.029 2.212-.086 1.712-.114 3.157-.486 4.367-1.144 1.976-1.086 3.245-2.716 3.835-4.975.207-.8.325-1.687.383-2.717.148-3.889.119-7.778.06-11.552 0-1.001-.03-2.174-.207-3.317-.383-2.517-1.534-4.404-3.481-5.69-.944-.63-2.065-1.059-3.422-1.316-1.564-.286-3.187-.286-4.632-.286-3.039-.029-6.166 0-9.323 0-1.121 0-2.301.028-3.481.2-2.567.372-4.485 1.458-5.812 3.288-.679.915-1.121 2.03-1.387 3.403-.177.944-.236 1.888-.265 2.774-.118 3.946-.089 7.864-.03 10.838.03 1.144.089 2.144.207 3.06.236 1.973.944 3.545 2.183 4.804 1.18 1.23 2.685 2.001 4.602 2.373 1.092.2 2.213.257 3.393.286.236 0 .443 0 .679.028h.973c.03.058.118.058.207.086z"/></svg><svg viewBox="0 0 35 34" id="vk" xmlns="http://www.w3.org/2000/svg"><path d="M21.31 33.885h-8.851c-.235 0-.44-.029-.647-.029-1.176-.028-2.41-.085-3.616-.313-2.205-.428-3.97-1.34-5.38-2.793-1.413-1.482-2.295-3.363-2.56-5.586-.116-.969-.175-1.994-.205-3.192-.058-2.992-.088-6.896.03-10.858.03-.94.088-1.966.264-2.992.294-1.567.853-2.85 1.647-3.961C3.55 2.023 5.844.712 8.784.285a27.38 27.38 0 013.675-.228C15.605 0 18.751 0 21.78 0c1.5 0 3.176 0 4.852.313 1.558.285 2.881.77 3.999 1.54 2.264 1.51 3.646 3.761 4.087 6.64.176 1.225.205 2.422.235 3.476.059 3.79.088 7.695-.059 11.6-.059 1.14-.176 2.108-.412 2.992-.705 2.593-2.205 4.56-4.498 5.842-1.411.77-3.029 1.225-4.998 1.34-.765.056-1.53.056-2.264.085-.353 0-.706.028-1.088.028h-.206l-.118.029zm-7.557-1.425h7.556c.088 0 .177 0 .265-.029.353 0 .735-.028 1.088-.028.735-.029 1.47-.029 2.205-.086 1.705-.114 3.146-.484 4.351-1.14 1.97-1.082 3.235-2.707 3.823-4.958.206-.798.323-1.682.382-2.708.147-3.875.117-7.751.059-11.513 0-.998-.03-2.166-.206-3.306-.382-2.508-1.529-4.389-3.47-5.671-.94-.627-2.058-1.055-3.41-1.311-1.559-.285-3.176-.285-4.616-.285-3.029-.029-6.145 0-9.291 0-1.118 0-2.294.028-3.47.2-2.558.37-4.469 1.453-5.792 3.277-.676.912-1.117 2.023-1.382 3.391-.176.94-.235 1.881-.265 2.764-.117 3.933-.088 7.838-.029 10.801.03 1.14.088 2.138.206 3.05.235 1.966.94 3.534 2.176 4.787 1.176 1.226 2.675 1.995 4.586 2.366 1.088.2 2.205.256 3.381.285.236 0 .442 0 .677.028h.97c.03.057.118.057.206.086z"/><path d="M19.398 13.65v2.338c0 .17.03.313.088.484.088.256.265.342.53.228.147-.057.294-.143.44-.257.589-.456 1.059-1.054 1.47-1.68.795-1.112 1.441-2.31 2-3.563.235-.542.617-.77 1.206-.77h2.322c.147 0 .294 0 .412.057.294.086.44.257.412.542-.03.256-.118.513-.206.74a12.69 12.69 0 01-1.353 2.366c-.559.855-1.146 1.681-1.735 2.536-.058.114-.147.2-.205.314-.147.228-.118.456.029.684.088.142.206.256.323.37.941.94 1.912 1.91 2.735 2.964.265.342.5.741.735 1.111.059.114.088.257.117.4.089.427-.117.712-.558.797-.118.029-.235.029-.382.029h-2.352c-.383 0-.736-.114-1-.37a27.012 27.012 0 01-1.264-1.311c-.588-.627-1.235-1.226-1.941-1.71a4.714 4.714 0 00-.647-.37 1.106 1.106 0 00-.676-.115c-.265.029-.382.114-.412.37-.03.086-.03.2-.03.314v2.166c0 .655-.205.883-.881.997-1.264.171-2.5-.028-3.675-.513-1.735-.712-3.146-1.823-4.293-3.277-1.5-1.91-2.764-3.961-3.675-6.212a8.963 8.963 0 01-.588-1.967c-.03-.085-.03-.2-.03-.285 0-.313.177-.513.5-.57.118-.028.265-.028.382-.028H9.52c.617 0 .882.17 1.088.712.235.542.44 1.112.676 1.653.559 1.311 1.235 2.565 2.088 3.705.264.342.558.655.882.94a.9.9 0 00.47.228c.235.057.382-.028.441-.256a2.15 2.15 0 00.059-.456v-3.676c0-.627-.206-1.197-.618-1.682a1.024 1.024 0 01-.205-.285c-.147-.2-.206-.399-.088-.598.117-.228.323-.314.558-.314h3.792c.53 0 .735.171.735.684v2.537z"/></svg></svg>